<?xml version="1.0" standalone="no"?>
<!DOCTYPE svg PUBLIC "-//W3C//DTD SVG 20010904//EN"
 "http://www.w3.org/TR/2001/REC-SVG-20010904/DTD/svg10.dtd">
<svg version="1.0" xmlns="http://www.w3.org/2000/svg"
 width="500.000000pt" height="208.000000pt" viewBox="0 0 500.000000 208.000000"
 preserveAspectRatio="xMidYMid meet">

<g transform="translate(0.000000,208.000000) scale(0.100000,-0.100000)"
fill="#000000" stroke="none">
<path d="M906 1984 c35 -26 42 -34 24 -30 -14 4 -70 10 -125 13 -146 8 -250
-22 -379 -111 l-59 -41 49 -3 c80 -4 84 -10 27 -43 -77 -45 -151 -115 -202
-194 -49 -75 -87 -152 -79 -160 2 -3 32 9 66 26 34 17 66 29 71 27 5 -2 -11
-30 -36 -63 -136 -179 -174 -371 -114 -572 22 -75 41 -102 41 -60 0 47 102
217 131 217 5 0 9 -19 9 -43 0 -93 65 -255 141 -350 50 -63 99 -106 168 -147
52 -30 53 -30 47 -8 -18 64 -27 120 -24 149 l3 32 61 -74 c75 -90 124 -167
124 -192 0 -10 -5 -27 -10 -37 -10 -19 -12 -19 -78 6 -80 30 -188 96 -259 159
-91 80 -186 224 -223 340 l-13 40 -17 -51 c-34 -99 -35 -129 -4 -182 68 -117
193 -249 298 -317 64 -41 199 -105 221 -105 25 0 24 -14 -6 -84 -16 -37 -29
-71 -29 -74 1 -4 29 23 63 61 l62 67 103 -12 c448 -52 876 229 1000 657 63
215 45 448 -48 652 -49 105 -87 161 -174 252 -79 82 -162 144 -251 189 -68 34
-198 76 -265 86 l-45 7 45 -30 c25 -17 59 -49 75 -72 22 -30 46 -48 90 -66
236 -99 405 -295 477 -550 29 -105 31 -285 4 -393 -64 -256 -245 -467 -489
-568 -68 -29 -216 -66 -226 -57 -2 3 13 23 33 45 20 23 44 56 53 75 22 46 33
44 33 -7 l0 -41 26 24 c33 31 70 93 91 154 15 46 16 47 28 25 12 -22 13 -22
18 -4 26 91 13 179 -44 290 -22 42 -39 78 -39 80 0 2 7 4 16 4 25 0 74 -56 74
-84 0 -30 3 -31 35 -10 25 16 25 16 25 -16 l0 -31 31 22 c17 12 43 39 59 61
17 23 30 34 33 26 3 -7 15 9 27 36 18 39 21 62 18 112 -2 35 0 64 4 64 4 0 21
24 38 53 23 39 30 65 30 104 0 29 8 69 17 89 l18 36 -30 25 c-17 14 -72 58
-122 99 -71 57 -93 81 -93 99 0 19 -21 38 -107 97 -94 64 -109 78 -120 114
-39 119 -198 203 -382 204 l-65 0 50 -36z m247 -132 c21 -18 22 -32 3 -32 -12
0 -46 40 -46 55 0 8 19 -3 43 -23z m-294 -43 c73 -31 79 -42 38 -68 l-35 -21
-43 25 c-94 54 -152 14 -94 -65 25 -33 25 -33 4 -48 -18 -12 -22 -12 -38 2
-30 27 -54 91 -47 122 4 14 21 40 37 57 28 27 34 29 79 24 27 -3 71 -16 99
-28z m415 -68 c26 -11 85 -45 131 -75 65 -42 85 -61 86 -78 0 -17 30 -46 115
-111 63 -48 114 -93 114 -98 0 -7 -31 -10 -90 -7 -64 2 -90 0 -90 -9 0 -16 49
-53 71 -53 10 0 25 -13 34 -31 13 -25 14 -36 4 -66 -9 -29 -21 -40 -74 -65
-88 -41 -122 -44 -165 -16 l-35 23 50 5 50 5 -38 8 c-50 10 -85 27 -90 41 -4
9 20 11 87 10 83 -2 86 -2 31 5 -83 12 -115 26 -115 52 0 16 4 20 18 14 9 -3
40 -8 67 -11 l50 -4 -52 18 c-66 22 -69 26 -49 57 9 14 14 25 11 25 -18 0 -87
-44 -100 -64 l-16 -24 -53 32 c-30 17 -68 39 -85 48 -38 21 -89 100 -97 149
-5 31 -13 40 -45 55 -22 9 -39 20 -39 24 0 4 20 26 45 49 l44 41 -32 17 -32
16 50 24 c43 21 61 23 122 19 40 -2 91 -13 117 -25z m-428 -172 c-77 -83 -136
-208 -136 -288 0 -25 0 -25 38 10 38 37 82 69 93 69 3 0 -2 -24 -12 -52 -33
-95 -16 -223 40 -294 l20 -26 7 29 c17 74 26 100 44 123 l20 25 0 -40 c0 -63
41 -195 60 -195 4 0 56 62 115 138 60 75 114 144 122 152 15 15 -5 -40 -101
-290 -31 -79 -56 -148 -56 -152 0 -4 45 -9 101 -10 l101 -3 -224 -270 c-122
-149 -238 -289 -256 -310 l-32 -40 19 45 c10 25 41 95 69 156 62 136 122 279
122 293 0 6 -39 11 -96 13 l-96 3 40 49 39 50 -23 50 c-13 28 -24 58 -24 66
-1 34 -20 -16 -20 -52 0 -51 -18 -42 -80 41 -56 75 -90 162 -90 233 0 26 -4
48 -10 48 -12 0 -62 -75 -80 -120 -14 -34 -14 -34 -21 -10 -15 55 -9 190 11
247 11 32 20 59 20 61 0 2 -16 -6 -36 -18 l-35 -22 15 36 c43 103 155 214 277
275 45 23 88 41 96 41 9 0 -8 -25 -41 -61z m860 -352 c-3 -18 -13 -42 -22 -53
-14 -18 -15 -16 -11 24 5 40 24 78 35 68 2 -3 2 -20 -2 -39z m-78 -142 c5 -42
-13 -95 -48 -143 -35 -49 -47 -52 -56 -15 l-7 26 -20 -27 -20 -27 -28 34 c-16
19 -53 45 -83 58 -31 13 -56 26 -56 29 0 5 51 24 105 39 17 5 59 20 95 34 85
34 114 32 118 -8z"/>
<path d="M1160 1573 l-35 -17 34 -4 c19 -2 48 -14 64 -28 16 -14 41 -24 59
-24 17 0 62 -11 101 -25 38 -14 72 -24 74 -22 2 3 -19 21 -48 42 -28 20 -53
45 -56 55 -3 12 -21 21 -61 29 -72 14 -90 14 -132 -6z"/>
<path d="M2266 1600 c-92 -29 -132 -161 -80 -262 22 -43 67 -61 140 -56 80 5
94 17 94 79 0 27 5 49 10 49 6 0 10 9 10 20 0 18 -7 20 -60 20 -53 0 -60 -2
-60 -20 0 -13 7 -20 20 -20 17 0 20 -7 20 -39 0 -41 -11 -51 -56 -51 -59 0
-100 97 -74 174 15 45 44 66 92 66 33 0 38 -3 38 -23 0 -30 6 -36 31 -30 15 4
19 14 19 44 0 21 -4 41 -10 44 -18 11 -105 14 -134 5z"/>
<path d="M3465 1591 c-57 -29 -79 -71 -79 -151 1 -119 51 -168 166 -162 32 2
86 46 99 81 16 40 12 146 -6 180 -33 64 -111 87 -180 52z m109 -54 c46 -46 42
-168 -7 -202 -49 -34 -109 0 -122 69 -22 112 63 199 129 133z"/>
<path d="M2470 1586 c0 -9 7 -19 15 -22 12 -5 15 -29 15 -125 0 -99 -3 -119
-15 -119 -8 0 -15 -9 -15 -20 0 -18 7 -20 60 -20 53 0 60 2 60 20 0 11 -7 20
-15 20 -11 0 -15 12 -15 46 0 45 0 45 33 42 26 -2 35 -10 51 -42 14 -28 16
-41 8 -44 -7 -2 -12 -12 -12 -23 0 -16 7 -19 55 -19 48 0 55 2 55 20 0 11 -4
20 -9 20 -5 0 -23 24 -38 54 l-29 53 23 27 c28 33 30 85 4 117 -18 22 -28 24
-125 27 -93 3 -106 2 -106 -12z m164 -36 c19 -7 26 -17 26 -37 0 -41 -13 -54
-59 -60 l-41 -6 0 57 c0 53 1 56 24 56 14 0 36 -4 50 -10z"/>
<path d="M2770 1580 c0 -11 4 -20 9 -20 5 0 10 -48 13 -107 6 -149 23 -174
117 -175 104 0 131 39 131 193 0 68 3 88 15 93 8 3 15 12 15 21 0 12 -13 15
-60 15 -53 0 -60 -2 -60 -20 0 -11 7 -20 15 -20 12 0 15 -18 15 -104 0 -97 -2
-106 -22 -120 -31 -22 -64 -20 -88 4 -17 17 -20 33 -20 120 0 82 3 100 15 100
8 0 15 9 15 20 0 18 -7 20 -55 20 -48 0 -55 -2 -55 -20z"/>
<path d="M3090 1585 c0 -9 7 -18 15 -21 12 -5 15 -29 15 -125 0 -99 -3 -119
-15 -119 -8 0 -15 -9 -15 -20 0 -18 7 -20 70 -20 63 0 70 2 70 20 0 15 -7 20
-25 20 -22 0 -25 4 -25 35 0 30 3 35 23 35 39 0 97 20 116 41 42 45 31 128
-20 154 -41 22 -209 21 -209 0z m187 -51 c31 -43 -3 -94 -62 -94 l-35 0 0 61
0 62 42 -6 c23 -3 48 -14 55 -23z"/>
<path d="M2802 890 c-56 -25 -86 -88 -80 -164 9 -101 52 -148 138 -148 91 0
140 58 140 167 0 73 -23 121 -71 147 -43 23 -73 23 -127 -2z m93 -36 c42 -17
60 -135 30 -194 -19 -36 -59 -49 -94 -29 -39 22 -52 56 -48 121 5 84 50 125
112 102z"/>
<path d="M3405 891 c-57 -29 -79 -71 -79 -151 1 -119 51 -168 166 -162 32 2
86 46 99 81 16 40 12 146 -6 180 -33 64 -111 87 -180 52z m109 -54 c46 -46 42
-168 -7 -202 -49 -34 -109 0 -122 69 -22 112 63 199 129 133z"/>
<path d="M2190 880 c0 -11 7 -20 15 -20 22 0 22 -228 0 -236 -8 -4 -15 -15
-15 -25 0 -18 9 -19 115 -19 l115 0 0 50 c0 47 -2 50 -25 50 -20 0 -25 -5 -25
-25 0 -23 -4 -25 -45 -25 l-45 0 0 114 c0 92 3 115 15 120 8 3 15 12 15 21 0
12 -13 15 -60 15 -53 0 -60 -2 -60 -20z"/>
<path d="M2450 880 c0 -11 7 -20 15 -20 13 0 15 -20 15 -120 0 -100 -2 -120
-15 -120 -8 0 -15 -9 -15 -20 0 -19 7 -20 115 -20 l115 0 0 45 c0 41 -2 45
-25 45 -18 0 -25 -5 -25 -20 0 -17 -7 -20 -45 -20 l-45 0 0 45 0 45 55 0 c52
0 55 1 55 25 0 24 -3 25 -55 25 l-55 0 0 40 0 40 40 0 c27 0 43 -5 46 -15 4
-8 15 -15 25 -15 15 0 19 7 19 40 l0 40 -110 0 c-103 0 -110 -1 -110 -20z"/>
<path d="M3000 881 c0 -11 7 -21 17 -23 11 -2 31 -46 63 -138 l48 -135 32 0
32 0 47 134 c26 74 53 137 59 139 7 2 12 12 12 23 0 16 -7 19 -55 19 -41 0
-55 -4 -55 -15 0 -7 7 -18 16 -23 15 -8 13 -20 -18 -113 l-35 -104 -34 103
c-31 96 -32 104 -16 113 9 6 17 17 17 24 0 12 -15 15 -65 15 -58 0 -65 -2 -65
-19z"/>
<path d="M3640 885 c0 -9 7 -18 15 -21 12 -5 15 -29 15 -125 0 -99 -3 -119
-15 -119 -8 0 -15 -9 -15 -20 0 -19 7 -20 115 -20 l115 0 0 50 c0 47 -2 50
-25 50 -20 0 -25 -5 -25 -25 0 -23 -4 -25 -45 -25 l-45 0 0 115 c0 96 3 115
15 115 8 0 15 9 15 20 0 18 -7 20 -60 20 -47 0 -60 -3 -60 -15z"/>
<path d="M3860 860 c0 -33 4 -40 19 -40 10 0 21 9 24 20 3 12 14 20 26 20 20
0 21 -5 21 -120 0 -113 -1 -120 -20 -120 -13 0 -20 -7 -20 -20 0 -18 7 -20 70
-20 63 0 70 2 70 20 0 13 -7 20 -20 20 -20 0 -21 5 -18 117 3 105 5 118 21
121 12 3 20 -4 24 -17 3 -14 13 -21 29 -21 21 0 24 5 24 40 l0 40 -125 0 -125
0 0 -40z"/>
<path d="M4160 885 c0 -7 7 -18 16 -23 15 -8 12 -21 -21 -118 -21 -60 -44
-114 -52 -120 -7 -6 -13 -19 -13 -28 0 -13 11 -16 55 -16 48 0 55 2 55 20 0
11 -7 20 -15 20 -16 0 -19 9 -9 34 5 12 21 16 65 16 32 0 59 -4 59 -9 0 -5 3
-16 6 -25 4 -11 1 -16 -10 -16 -9 0 -16 -8 -16 -20 0 -18 7 -20 60 -20 53 0
60 2 60 20 0 11 -6 20 -13 20 -8 0 -33 56 -62 140 l-49 140 -58 0 c-44 0 -58
-4 -58 -15z m104 -103 c9 -32 16 -61 16 -65 0 -4 -18 -7 -40 -7 -24 0 -40 5
-40 12 0 20 33 118 41 118 3 0 14 -26 23 -58z"/>
<path d="M4500 880 c0 -13 7 -20 20 -20 19 0 20 -7 20 -109 0 -83 -3 -111 -15
-121 -23 -19 -50 -8 -53 23 -3 21 -9 27 -28 27 -22 0 -24 -4 -24 -44 0 -37 4
-46 22 -52 34 -10 92 -8 117 5 33 18 41 51 41 166 0 82 3 104 15 109 8 3 15
12 15 21 0 12 -13 15 -65 15 -58 0 -65 -2 -65 -20z"/>
<path d="M4650 885 c0 -9 7 -18 15 -21 12 -5 15 -29 15 -125 0 -99 -3 -119
-15 -119 -8 0 -15 -9 -15 -20 0 -19 7 -20 115 -20 l115 0 0 45 c0 41 -2 45
-25 45 -18 0 -25 -5 -25 -20 0 -17 -7 -20 -45 -20 l-45 0 0 45 0 45 55 0 c52
0 55 1 55 25 0 24 -3 25 -55 25 l-55 0 0 40 0 40 45 0 c34 0 45 -4 45 -16 0
-10 7 -14 23 -12 18 2 23 10 25 41 l3 37 -115 0 c-98 0 -116 -2 -116 -15z"/>
</g>
</svg>
